<svg version="1.1" id="Layer_1" xmlns="http://www.w3.org/2000/svg" xmlns:xlink="http://www.w3.org/1999/xlink" x="0px" y="0px"
	 viewBox="0 0 40.3 16" style="enable-background:new 0 0 40.3 16;" xml:space="preserve">
<style type="text/css">
	.st0{fill-rule:evenodd;clip-rule:evenodd;fill:#161616;}
</style>
<path class="st0" d="M40.3,14.9V16H35v-1.1H40.3z M27.6,14.9V16h-5.3v-1.1H27.6z M31.6,14.9L31.2,16l-0.4-1.1
	C30.8,14.9,31.6,14.9,31.6,14.9z M19.8,14.9C19,15.6,18,16,17,16H8.5v-1.1H19.8z M7.5,14.9V16H0v-1.1H7.5z M27.6,12.9V14h-5.3v-1.1
	H27.6z M32.5,12.9L32.1,14h-1.7L30,12.9H32.5L32.5,12.9z M20.9,12.9c-0.1,0.4-0.3,0.7-0.4,1.1h-12v-1.1H20.9z M7.5,12.9V14H0v-1.1
	H7.5z M40.3,12.9V14H35v-1.1H40.3z M38.1,10.7v1.1h-3.2v-1.1H38.1L38.1,10.7z M27.6,10.7v1.1h-3.2v-1.1H27.6L27.6,10.7z M33.3,10.7
	l-0.4,1.1h-3.3l-0.4-1.1C29.2,10.7,33.3,10.7,33.3,10.7z M20.7,10.7c0.1,0.4,0.1,0.7,0.1,1.1h-3.9v-1.1
	C16.9,10.7,20.7,10.7,20.7,10.7z M13.8,10.7v1.1h-3.2v-1.1H13.8L13.8,10.7z M5.3,10.7v1.1H2.1v-1.1H5.3z M38.1,8.5v1.1h-3.2V8.5
	H38.1L38.1,8.5z M27.6,8.5v1.1h-3.2V8.5H27.6L27.6,8.5z M34.2,8.5l-0.4,1.1h-5l-0.4-1.1H34.2z M19.4,8.5c0.4,0.4,0.7,0.6,0.9,1.1
	h-9.6V8.5H19.4z M5.3,8.5v1.1H2.1V8.5H5.3z M31,6.4l0.4,0.8l0.4-0.8h6.6v1.1h-3.2v-1l-0.4,1H28l-0.4-1.1v1h-3.2V6.3L31,6.4L31,6.4z
	 M5.3,6.4v1.1H2.1V6.4H5.3z M20.4,6.4c-0.3,0.4-0.5,0.8-0.9,1.1h-8.8V6.4H20.4z M38.1,4.4v1.1h-6.2l0.4-1.1H38.1z M30.2,4.4l0.4,1.1
	h-6.2V4.4H30.2L30.2,4.4z M20.9,4.4c0,0.4-0.1,0.7-0.1,1.1h-3.7V4.4H20.9z M13.8,4.4v1.1h-3.2V4.4H13.8L13.8,4.4z M5.3,4.4v1.1H2.1
	V4.4H5.3z M29.5,2.1l0.4,1.1h-7.6V2.1H29.5L29.5,2.1z M40.3,2.1v1.1h-7.6l0.4-1.1C33.1,2.1,40.3,2.1,40.3,2.1z M20.4,2.1
	c0.2,0.4,0.3,0.7,0.4,1.1H8.4V2.1H20.4z M7.5,2.1v1.1H0V2.1H7.5z M28.7,0l0.4,1.1h-6.8V0H28.7z M40.3,0v1.1h-6.8L33.9,0
	C33.8,0,40.3,0,40.3,0z M16.9,0C18,0,19,0.4,19.7,1.1H8.4V0H16.9z M7.5,0v1.1H0V0H7.5L7.5,0z"/>
</svg>
